<?xml version="1.0" encoding="UTF-8" standalone="no"?>
<!DOCTYPE svg PUBLIC "-//W3C//DTD SVG 1.1//EN" "http://www.w3.org/Graphics/SVG/1.1/DTD/svg11.dtd">
<svg xmlns="http://www.w3.org/2000/svg" version="1.1" viewBox="0.00 0.00 500.00 500.00" width="500.00" height="500.00">
<path fill="#ff9900" d="
  M 73.91 198.18
  A 0.58 0.57 -74.1 0 0 74.73 197.72
  C 75.02 194.98 76.95 193.36 79.65 192.83
  Q 87.87 191.21 95.60 189.67
  C 97.60 189.27 99.15 189.77 100.45 191.42
  Q 101.85 193.21 101.97 190.94
  Q 102.22 186.59 107.03 186.35
  Q 108.27 186.29 109.54 186.20
  Q 116.51 185.70 124.36 186.37
  C 126.74 186.57 128.90 188.27 129.05 190.63
  Q 129.09 191.28 129.74 191.17
  Q 131.31 190.92 132.56 190.02
  Q 132.96 189.73 133.46 189.73
  Q 135.77 189.74 137.97 190.15
  Q 145.22 191.51 151.52 192.89
  Q 155.72 193.80 156.07 197.49
  A 0.81 0.81 0.0 0 0 157.34 198.08
  C 159.04 196.91 161.22 195.89 163.31 196.59
  Q 170.92 199.11 178.33 201.71
  C 183.08 203.38 181.76 208.52 180.53 212.20
  Q 178.26 218.99 176.33 225.81
  C 175.24 229.67 173.87 233.48 172.99 237.44
  A 1.02 1.02 0.0 0 0 173.27 238.40
  C 176.14 241.21 174.84 244.48 174.23 247.88
  C 173.96 249.39 174.19 250.97 173.81 252.40
  Q 173.58 253.26 173.46 254.15
  Q 171.01 271.71 168.52 288.25
  Q 167.13 297.49 165.99 306.90
  Q 165.76 308.75 165.32 310.56
  C 164.87 312.42 165.36 314.72 164.70 316.32
  Q 164.31 317.27 164.19 318.27
  Q 163.33 325.30 162.03 333.89
  Q 161.30 338.68 157.10 339.07
  C 154.70 339.30 152.33 337.24 152.02 335.02
  C 151.62 332.23 152.75 328.78 153.04 326.24
  Q 153.71 320.28 154.80 314.10
  C 155.06 312.62 154.76 310.94 155.33 309.58
  Q 155.70 308.71 155.77 307.72
  Q 156.00 304.21 156.68 300.97
  C 157.09 298.96 156.81 297.01 157.40 295.06
  C 158.11 292.74 157.80 290.59 158.40 288.28
  Q 158.73 287.03 158.91 285.66
  Q 160.42 274.04 161.97 263.50
  Q 162.53 259.71 163.12 256.03
  Q 163.77 251.95 164.07 247.96
  A 0.71 0.71 0.0 0 0 163.37 247.19
  C 162.13 247.18 160.73 246.90 159.80 247.97
  Q 158.55 249.40 157.74 250.78
  A 0.93 0.91 -80.3 0 1 157.12 251.23
  Q 156.62 251.33 156.41 251.77
  Q 156.19 252.22 155.80 252.53
  Q 148.66 258.31 142.57 260.76
  Q 134.88 263.85 128.18 264.85
  Q 126.01 265.17 123.98 265.54
  C 119.53 266.36 114.66 266.03 110.03 265.98
  Q 108.27 265.97 106.61 265.55
  Q 105.01 265.14 103.13 264.88
  Q 96.96 264.03 89.33 261.11
  Q 81.78 258.23 74.12 251.61
  C 72.14 249.89 71.34 246.84 68.11 247.11
  Q 66.71 247.22 66.88 248.62
  Q 67.63 254.72 68.37 260.24
  C 68.46 260.96 69.04 261.27 68.99 262.08
  Q 68.83 265.03 69.68 267.69
  Q 69.93 268.47 70.00 269.33
  Q 70.08 270.17 70.18 270.98
  Q 73.11 292.69 76.44 315.65
  Q 76.59 316.69 76.88 317.66
  C 77.21 318.74 76.83 319.98 77.15 321.10
  Q 78.13 324.51 78.01 328.10
  Q 77.99 328.74 78.58 328.99
  Q 80.71 329.90 83.05 329.15
  C 83.83 328.91 84.43 329.41 85.26 329.42
  Q 109.91 329.62 138.52 329.18
  Q 143.41 329.11 144.15 333.82
  Q 144.17 333.94 144.16 334.08
  Q 144.03 339.04 139.26 339.04
  Q 107.61 339.05 74.39 339.05
  Q 69.87 339.05 69.19 334.51
  Q 67.99 326.62 66.97 318.89
  Q 66.72 316.97 66.29 315.03
  C 65.91 313.31 66.28 310.74 65.55 309.25
  Q 65.20 308.54 65.12 307.72
  Q 64.41 300.83 63.26 293.71
  Q 63.03 292.27 62.90 290.78
  C 62.76 289.10 61.94 287.76 61.99 286.02
  C 62.07 283.39 61.30 280.95 60.95 278.31
  Q 59.89 270.20 58.73 262.39
  Q 58.56 261.24 58.16 260.13
  C 57.80 259.12 58.11 257.76 57.92 256.65
  Q 56.79 249.96 55.95 242.85
  Q 55.63 240.16 57.66 238.57
  Q 58.05 238.26 57.98 237.77
  Q 57.30 233.39 55.96 230.25
  Q 55.40 228.93 55.14 227.89
  Q 54.62 225.71 54.60 225.66
  Q 51.47 215.96 49.23 207.48
  A 4.80 4.79 -16.7 0 1 52.35 201.71
  L 68.85 196.20
  Q 69.37 196.03 69.85 196.26
  L 73.91 198.18
  Z
  M 118.49 197.00
  A 0.76 0.76 0.0 0 0 117.73 196.24
  L 113.13 196.24
  A 0.76 0.76 0.0 0 0 112.37 197.00
  L 112.37 254.80
  A 0.76 0.76 0.0 0 0 113.13 255.56
  L 117.73 255.56
  A 0.76 0.76 0.0 0 0 118.49 254.80
  L 118.49 197.00
  Z
  M 93.08 251.46
  A 0.32 0.32 0.0 0 0 93.29 251.71
  L 98.77 253.57
  A 0.32 0.32 0.0 0 0 99.19 253.22
  L 92.29 201.16
  A 0.32 0.32 0.0 0 0 91.93 200.88
  L 85.77 201.70
  A 0.32 0.32 0.0 0 0 85.50 202.06
  L 93.08 251.46
  Z
  M 131.66 253.02
  A 0.65 0.65 0.0 0 0 132.55 253.71
  L 137.78 251.66
  A 0.65 0.65 0.0 0 0 138.19 251.15
  L 145.43 202.47
  A 0.65 0.65 0.0 0 0 144.89 201.73
  L 139.23 200.84
  A 0.65 0.65 0.0 0 0 138.48 201.40
  L 131.66 253.02
  Z
  M 68.36 236.55
  A 0.34 0.34 0.0 0 0 68.64 236.79
  L 75.70 237.73
  A 0.34 0.34 0.0 0 0 76.07 237.28
  L 66.38 208.26
  A 0.34 0.34 0.0 0 0 65.96 208.04
  L 60.74 209.60
  A 0.34 0.34 0.0 0 0 60.52 210.03
  L 68.36 236.55
  Z
  M 155.13 237.04
  A 0.32 0.32 0.0 0 0 155.47 237.46
  L 162.23 236.83
  A 0.32 0.32 0.0 0 0 162.51 236.60
  L 170.48 210.03
  A 0.32 0.32 0.0 0 0 170.26 209.63
  L 165.04 208.07
  A 0.32 0.32 0.0 0 0 164.64 208.28
  L 155.13 237.04
  Z"
/>
<path fill="#ff9900" d="
  M 331.55 248.01
  Q 336.28 248.49 341.21 247.70
  Q 341.60 247.64 341.91 247.42
  L 342.40 247.07
  A 0.45 0.44 -59.3 0 1 342.71 246.99
  Q 345.02 247.18 347.30 246.61
  Q 351.37 245.59 355.19 244.78
  A 2.03 2.03 0.0 0 1 357.55 246.18
  C 358.54 249.45 355.60 253.01 352.90 254.48
  C 346.66 257.89 339.77 259.00 332.38 259.47
  Q 323.62 260.04 319.63 253.42
  Q 318.84 252.11 318.50 250.24
  Q 318.24 248.85 318.58 247.33
  Q 320.65 237.87 323.47 228.98
  Q 326.60 219.07 329.36 208.82
  Q 330.89 203.11 331.66 196.47
  C 332.35 190.48 339.04 196.26 340.64 198.19
  Q 342.26 200.15 342.31 202.66
  Q 342.35 204.96 341.96 207.73
  Q 341.49 211.09 338.84 219.45
  Q 335.39 230.35 331.21 242.98
  Q 330.61 244.78 330.92 247.38
  Q 330.98 247.95 331.55 248.01
  Z"
/>
<path fill="#ff9900" d="
  M 287.64 246.21
  Q 296.72 236.77 299.68 223.23
  C 300.26 220.57 301.00 217.66 301.01 214.94
  Q 301.05 209.31 301.00 203.40
  C 300.98 200.52 298.83 197.83 301.13 195.24
  Q 301.48 194.86 302.00 194.88
  Q 304.08 194.96 305.90 196.29
  Q 315.17 203.01 313.96 213.88
  Q 312.20 229.56 304.45 243.78
  C 300.95 250.21 295.63 256.16 288.77 258.80
  C 278.16 262.88 269.48 252.34 267.53 243.35
  Q 266.60 239.04 267.64 232.33
  Q 269.47 220.63 271.67 211.98
  Q 273.63 204.24 274.45 197.02
  Q 274.65 195.20 276.43 194.92
  C 279.40 194.45 283.13 198.51 284.75 200.86
  Q 286.30 203.11 285.81 205.63
  Q 284.29 213.42 282.44 220.48
  Q 281.80 222.91 281.32 225.41
  Q 280.86 227.79 280.29 230.42
  Q 278.61 238.12 280.40 244.59
  C 281.01 246.82 282.99 248.22 285.28 247.47
  Q 286.95 246.93 287.64 246.21
  Z"
/>
<path fill="#ff9900" d="
  M 215.03 224.50
  C 214.03 227.29 214.40 230.13 213.46 232.83
  Q 212.90 234.46 212.94 236.21
  Q 212.95 236.60 212.70 236.90
  Q 212.45 237.20 212.36 237.58
  Q 209.88 248.07 207.16 256.03
  Q 206.73 257.30 206.06 258.51
  A 1.83 1.83 0.0 0 1 203.13 258.87
  Q 200.86 256.45 198.68 252.64
  Q 197.84 251.17 197.92 249.55
  C 198.00 247.93 197.91 246.47 198.28 244.86
  Q 202.10 228.56 205.65 213.11
  Q 207.04 207.09 208.17 197.13
  C 208.44 194.74 210.74 194.60 212.48 195.59
  Q 217.85 198.66 221.65 202.87
  Q 222.03 203.29 222.00 203.86
  Q 221.84 206.54 222.79 209.02
  C 223.15 209.95 223.00 210.99 223.30 211.98
  Q 225.29 218.46 227.86 225.36
  A 1.25 1.25 0.0 0 0 230.02 225.69
  Q 238.05 215.35 245.59 205.72
  C 247.52 203.25 249.96 200.85 252.42 198.85
  Q 254.78 196.92 257.22 198.34
  C 260.36 200.17 262.13 203.02 261.47 206.79
  C 261.08 208.98 261.03 211.17 260.43 213.35
  Q 254.97 233.41 250.60 251.52
  Q 249.87 254.56 248.66 257.44
  C 247.77 259.54 245.08 260.34 243.66 258.25
  Q 241.69 255.35 241.13 252.29
  Q 240.30 247.81 241.22 242.47
  Q 242.39 235.58 245.04 227.28
  A 0.31 0.31 0.0 0 0 244.80 226.89
  C 244.16 226.78 243.47 226.97 243.08 227.52
  Q 238.48 234.04 233.42 239.59
  C 231.82 241.36 229.82 242.93 227.29 243.09
  Q 222.44 243.41 220.49 239.66
  Q 218.80 236.38 216.88 227.31
  Q 216.57 225.81 215.59 224.43
  Q 215.24 223.93 215.03 224.50
  Z"
/>
<path fill="#ff9900" d="
  M 431.31 197.23
  Q 434.51 200.42 436.08 204.18
  Q 436.81 205.95 436.55 207.92
  Q 436.16 210.81 435.93 211.75
  Q 432.70 225.06 430.25 236.92
  C 429.94 238.44 429.99 239.86 429.48 241.38
  Q 429.20 242.22 429.04 243.15
  Q 427.70 251.12 425.22 258.16
  A 2.07 2.06 -59.8 0 1 421.92 259.04
  C 419.36 256.82 415.51 252.80 416.10 249.15
  Q 416.67 245.64 417.41 241.85
  Q 421.72 219.62 424.70 201.00
  Q 424.97 199.31 425.04 197.40
  A 2.45 2.45 0.0 0 1 427.60 195.03
  Q 428.92 195.08 430.13 196.14
  Q 430.75 196.67 431.31 197.23
  Z"
/>
<path fill="#ff9900" d="
  M 396.73 208.04
  C 396.48 209.16 396.81 210.16 396.54 211.40
  C 394.76 219.72 392.42 227.93 390.61 236.24
  Q 388.35 246.63 386.23 255.76
  Q 386.07 256.45 385.10 258.48
  Q 384.87 258.96 384.34 259.04
  C 381.62 259.42 379.00 255.16 377.62 253.15
  C 376.65 251.74 376.84 248.67 377.21 247.07
  Q 379.04 239.16 381.01 230.50
  Q 383.47 219.71 384.89 209.06
  Q 385.14 207.18 383.26 207.49
  Q 380.55 207.93 377.42 208.07
  C 372.68 208.28 369.08 205.62 368.21 200.84
  A 2.29 2.29 0.0 0 1 369.29 198.47
  C 371.66 197.05 374.03 197.25 376.54 196.53
  Q 378.28 196.03 380.02 196.01
  Q 390.14 195.89 400.58 196.03
  Q 404.07 196.08 407.35 196.94
  Q 410.61 197.79 413.47 199.10
  C 415.71 200.12 418.81 202.56 418.10 205.39
  C 417.42 208.08 412.53 208.16 410.48 207.94
  Q 404.39 207.29 397.63 207.32
  Q 396.89 207.32 396.73 208.04
  Z"
/>
<path fill="#ff9900" d="
  M 246.88 299.95
  Q 252.21 280.79 267.37 270.04
  Q 276.29 263.72 285.90 269.60
  Q 287.62 270.65 290.55 274.40
  Q 292.73 277.19 293.82 280.16
  C 295.36 284.38 296.46 289.61 295.54 294.14
  C 295.11 296.31 295.05 298.40 294.39 300.57
  C 290.73 312.77 282.45 324.20 270.86 329.71
  Q 267.51 331.30 262.20 331.63
  C 260.85 331.71 257.71 331.19 256.58 330.49
  Q 247.27 324.76 245.28 315.47
  Q 244.30 310.89 245.70 305.24
  Q 246.01 303.99 246.02 302.76
  C 246.03 301.70 246.60 300.95 246.88 299.95
  Z
  M 259.17 318.70
  Q 260.77 321.52 263.50 320.68
  Q 266.37 319.78 269.12 317.57
  Q 276.89 311.31 281.19 301.26
  Q 283.58 295.69 283.29 289.18
  C 283.11 285.21 281.30 275.67 275.27 279.01
  C 267.29 283.43 261.76 294.91 259.31 303.28
  C 258.18 307.15 257.23 315.27 259.17 318.70
  Z"
/>
<path fill="#ff9900" d="
  M 350.71 288.78
  C 351.59 304.48 340.27 323.21 325.78 329.69
  Q 321.21 331.74 315.93 331.52
  C 309.23 331.23 303.79 324.54 301.22 318.80
  Q 300.97 318.26 300.93 317.65
  Q 300.90 317.17 300.51 316.87
  A 1.07 1.05 -72.4 0 1 300.13 316.12
  C 299.91 312.93 299.59 308.72 300.59 305.63
  C 301.04 304.23 300.87 302.90 301.30 301.50
  Q 302.69 297.05 304.30 292.98
  Q 309.96 278.72 323.07 269.48
  C 323.95 268.86 324.99 268.85 325.77 268.10
  Q 326.23 267.66 326.86 267.50
  Q 336.35 265.21 342.77 271.39
  Q 350.14 278.48 350.71 288.78
  Z
  M 333.19 307.04
  C 337.73 299.66 339.50 291.93 337.28 283.52
  C 336.56 280.79 334.45 277.23 331.05 278.63
  C 329.17 279.41 327.24 280.81 325.84 282.35
  Q 317.66 291.39 314.26 303.49
  C 313.25 307.09 310.69 323.49 319.15 320.42
  Q 323.06 318.99 326.86 315.13
  Q 330.47 311.46 333.19 307.04
  Z"
/>
<path fill="#ff9900" d="
  M 366.99 278.63
  Q 366.33 277.70 365.39 276.94
  Q 361.51 273.84 360.13 269.15
  A 1.79 1.78 -7.7 0 1 361.88 266.86
  Q 365.68 266.94 369.71 267.66
  Q 373.29 268.31 376.89 269.71
  Q 385.97 273.24 392.12 277.05
  C 399.21 281.44 405.80 288.81 408.01 296.83
  Q 409.89 303.61 404.27 309.63
  Q 391.97 322.82 374.28 329.51
  Q 369.74 331.23 364.73 331.59
  A 1.51 1.51 0.0 0 1 363.68 331.26
  C 360.52 328.73 356.29 324.53 357.00 319.98
  Q 357.63 315.93 358.79 312.05
  C 359.08 311.09 358.77 309.90 359.29 309.16
  Q 359.64 308.67 359.81 308.07
  Q 362.81 297.59 365.70 286.72
  Q 366.62 283.25 367.24 279.72
  Q 367.34 279.13 366.99 278.63
  Z
  M 388.37 307.78
  Q 392.46 304.88 395.02 300.99
  C 397.27 297.55 394.11 294.35 391.75 292.20
  Q 386.52 287.43 379.64 284.11
  Q 378.60 283.61 378.41 284.74
  Q 377.64 289.33 376.19 294.48
  Q 372.86 306.28 369.28 317.65
  A 0.84 0.83 -3.3 0 0 370.42 318.66
  Q 380.15 314.35 387.75 308.35
  Q 387.89 308.25 388.00 308.12
  Q 388.16 307.93 388.37 307.78
  Z"
/>
<path fill="#ff9900" d="
  M 437.13 284.87
  A 2.63 2.63 0.0 0 0 436.70 289.06
  Q 440.30 292.39 444.27 295.73
  Q 449.95 300.51 453.74 306.83
  A 1.53 1.50 29.6 0 1 453.95 307.56
  Q 453.97 308.31 454.46 308.82
  Q 454.84 309.22 454.92 309.75
  Q 455.46 313.34 454.83 316.61
  Q 454.26 319.58 451.82 322.49
  Q 446.31 329.05 437.95 330.76
  Q 435.76 331.21 433.49 331.59
  Q 431.38 331.95 429.33 331.65
  Q 425.65 331.12 422.64 330.13
  Q 418.64 328.81 415.02 325.18
  Q 410.71 320.84 411.81 315.21
  A 2.52 2.52 0.0 0 1 415.28 313.37
  Q 418.42 314.72 420.93 317.14
  Q 423.19 319.33 425.84 320.42
  Q 431.62 322.82 437.13 319.44
  Q 439.90 317.74 442.05 315.63
  A 3.43 3.43 0.0 0 0 442.22 310.89
  Q 437.04 305.05 430.95 299.39
  Q 427.33 296.02 424.36 291.66
  Q 423.09 289.79 423.28 287.51
  Q 423.62 283.44 425.12 280.40
  Q 426.26 278.09 429.67 275.60
  Q 438.20 269.37 447.94 267.21
  Q 452.83 266.12 456.39 268.25
  Q 457.88 269.14 458.60 270.76
  Q 459.48 272.73 459.95 274.56
  A 2.06 2.05 76.7 0 1 458.40 277.08
  C 457.32 277.31 456.59 277.97 455.42 278.19
  Q 444.92 280.19 437.13 284.87
  Z"
/>
<path fill="#ff9900" d="
  M 217.51 280.90
  Q 217.20 283.01 217.08 285.15
  C 216.98 287.15 216.14 288.79 216.05 290.78
  Q 215.98 292.25 215.51 293.53
  Q 214.92 295.16 215.06 296.93
  A 0.83 0.82 -2.6 0 0 215.90 297.69
  Q 224.20 297.53 233.62 296.63
  Q 234.99 296.50 236.53 297.83
  Q 236.99 298.23 237.06 298.82
  C 237.89 305.81 218.36 308.01 213.60 308.41
  Q 212.34 308.51 212.02 309.74
  Q 210.50 315.73 209.26 321.65
  Q 208.31 326.16 206.70 330.30
  Q 205.91 332.34 204.20 330.96
  Q 201.02 328.39 198.64 324.18
  C 197.52 322.19 197.83 318.28 198.30 316.09
  Q 201.39 301.58 204.92 286.54
  C 205.11 285.74 204.93 284.96 205.15 284.10
  Q 206.57 278.78 206.89 273.50
  C 207.04 271.04 209.53 269.13 211.79 268.96
  C 213.29 268.85 214.44 268.15 215.94 268.11
  Q 223.54 267.87 231.95 268.00
  Q 234.17 268.04 236.51 268.48
  Q 238.52 268.86 240.75 269.22
  Q 242.24 269.47 244.93 271.28
  C 246.28 272.19 246.23 273.60 245.96 274.99
  Q 245.85 275.55 245.31 275.72
  C 244.11 276.10 243.12 276.84 241.85 276.98
  C 239.63 277.24 237.68 277.89 235.39 278.03
  Q 226.76 278.52 218.14 280.24
  Q 217.59 280.35 217.51 280.90
  Z"
/>
</svg>
